<?xml version="1.0" encoding="UTF-8" standalone="no"?>
<svg
   viewBox="0 0 500 820"
   version="1.1"
   xml:space="preserve"
   style="fill-rule: evenodd; clip-rule: evenodd; stroke-linecap: round;"
   id="svg27"
   sodipodi:docname="marker_indigo_1.svg"
   inkscape:version="1.2.2 (b0a84865, 2022-12-01)"
   xmlns:inkscape="http://www.inkscape.org/namespaces/inkscape"
   xmlns:sodipodi="http://sodipodi.sourceforge.net/DTD/sodipodi-0.dtd"
   xmlns="http://www.w3.org/2000/svg"
   xmlns:svg="http://www.w3.org/2000/svg"><sodipodi:namedview
   id="namedview29"
   pagecolor="#ffffff"
   bordercolor="#666666"
   borderopacity="1.0"
   inkscape:showpageshadow="2"
   inkscape:pageopacity="0.0"
   inkscape:pagecheckerboard="0"
   inkscape:deskcolor="#d1d1d1"
   showgrid="false"
   inkscape:zoom="1.2841463"
   inkscape:cx="261.65242"
   inkscape:cy="413.50427"
   inkscape:window-width="1165"
   inkscape:window-height="1216"
   inkscape:window-x="1278"
   inkscape:window-y="196"
   inkscape:window-maximized="0"
   inkscape:current-layer="g25" />
    <defs
   id="defs19">
        <linearGradient
   x1="0"
   y1="0"
   x2="1"
   y2="0"
   gradientUnits="userSpaceOnUse"
   gradientTransform="matrix(2.30025e-15,-37.566,37.566,2.30025e-15,416.455,540.999)"
   id="map-marker-38-f">
            <stop
   offset="0"
   stop-color="rgb(18,111,198)"
   id="stop9" />
            <stop
   offset="1"
   stop-color="rgb(76,156,209)"
   id="stop11" />
        </linearGradient>
        <linearGradient
   x1="0"
   y1="0"
   x2="1"
   y2="0"
   gradientUnits="userSpaceOnUse"
   gradientTransform="matrix(1.16666e-15,-19.053,19.053,1.16666e-15,414.482,522.486)"
   id="map-marker-38-s">
            <stop
   offset="0"
   stop-color="rgb(46,108,151)"
   id="stop14"
   style="stop-color:#0d6efd;stop-opacity:1;" />
            <stop
   offset="1"
   stop-color="rgb(56,131,183)"
   id="stop16" />
        </linearGradient>
    </defs>
    <g
   transform="matrix(19.5417,0,0,19.5417,-7889.1,-9807.44)"
   id="g25">
        <path
   fill="#FFFFFF"
   d="M421.2,515.5c0,2.6-2.1,4.7-4.7,4.7c-2.6,0-4.7-2.1-4.7-4.7c0-2.6,2.1-4.7,4.7-4.7 C419.1,510.8,421.2,512.9,421.2,515.5z"
   id="path21" />
        <path
   d="M416.544,503.612C409.971,503.612 404.5,509.303 404.5,515.478C404.5,518.256 406.064,521.786 407.194,524.224L416.5,542.096L425.762,524.224C426.892,521.786 428.5,518.433 428.5,515.478C428.5,509.303 423.117,503.612 416.544,503.612ZM416.544,510.767C419.128,510.784 421.223,512.889 421.223,515.477C421.223,518.065 419.128,520.14 416.544,520.156C413.96,520.139 411.865,518.066 411.865,515.477C411.865,512.889 413.96,510.784 416.544,510.767Z"
   stroke-width="1.1px"
   fill="url(#map-marker-38-f)"
   stroke="url(#map-marker-38-s)"
   id="path23"
   style="fill:#6610f2;fill-opacity:1;stroke:#6610f2;stroke-opacity:1" />
    </g>
</svg>
